<?xml version="1.0" encoding="UTF-8" standalone="no"?><svg width="227" height="207" viewBox="0 0 227 207" fill="none" xmlns="http://www.w3.org/2000/svg">
<path d="M123.996 51.5355C122.076 49.7646 119.116 49.7701 117.203 51.5481L104.008 63.8084C102.103 65.579 99.1579 65.5928 97.2359 63.8401L84.3719 52.1095C82.1904 50.1202 82.1984 46.6837 84.3893 44.7046L117.231 15.0376C119.139 13.3139 122.044 13.3186 123.946 15.0487L153.887 42.2737C163.794 51.308 164.832 65.4577 157 75.6873C155.413 77.7599 152.407 77.737 150.488 75.9674L123.996 51.5355ZM17.5006 105.632C15.2809 107.628 15.2929 111.111 17.5263 113.091L30.492 124.588C32.4069 126.286 35.2948 126.264 37.1834 124.536L62.9245 100.996C65.0942 99.0121 65.0918 95.5931 62.9193 93.612L50.3532 82.153C48.4544 80.4215 45.5522 80.4113 43.6412 82.1294L17.5006 105.632ZM110.609 70.0091C112.515 68.2703 115.432 68.2682 117.342 70.0043L143.269 93.5809C145.459 95.5722 145.45 99.0195 143.249 100.998L137.255 106.387C135.367 108.084 132.502 108.074 130.627 106.364V106.364C128.746 104.649 125.869 104.645 123.983 106.355L29.9461 191.623C28.0364 193.355 25.1232 193.351 23.2184 191.614L4.05389 174.138C1.8784 172.154 1.87941 168.729 4.05606 166.747L76.269 100.974C78.437 98.9992 78.448 95.5913 76.2928 93.6027L44.3932 64.1689C42.2388 62.1811 42.2488 58.7748 44.4148 56.7997L56.9712 45.3495C58.8816 43.6074 61.8052 43.6091 63.7136 45.3535L97.2673 76.0228C99.1757 77.7671 102.099 77.7688 104.01 76.0267L110.609 70.0091Z" fill="#317773" fill-opacity="0.9"/>
</svg>
